<svg xmlns="http://www.w3.org/2000/svg" x="0px" y="0px"
width="24" height="24"
viewBox="0 0 172 172"
style=" fill:#000000;"><g fill="none" fill-rule="nonzero" stroke="none" stroke-width="1" stroke-linecap="butt" stroke-linejoin="miter" stroke-miterlimit="10" stroke-dasharray="" stroke-dashoffset="0" font-family="none" font-weight="none" font-size="none" text-anchor="none" style="mix-blend-mode: normal"><path d="M0,172v-172h172v172z" fill="none"></path><g fill="#e74c3c"><path d="M118.25,21.5c-20.7475,0 -32.25,14.97833 -32.25,14.97833c0,0 -11.5025,-14.97833 -32.25,-14.97833c-21.77233,0 -39.41667,17.64433 -39.41667,39.41667c0,39.41667 71.66667,89.58333 71.66667,89.58333c0,0 71.66667,-50.16667 71.66667,-89.58333c0,-21.77233 -17.64433,-39.41667 -39.41667,-39.41667zM86,132.71233c-24.9615,-19.1565 -57.33333,-50.96933 -57.33333,-71.79567c0,-13.83167 11.25167,-25.08333 25.08333,-25.08333c17.21433,0 32.25,20.8335 32.25,20.8335c0,0 15.33667,-20.8335 32.25,-20.8335c13.83167,0 25.08333,11.25167 25.08333,25.08333c0,20.82633 -32.37183,52.63917 -57.33333,71.79567z"></path></g></g></svg>