<?xml version="1.0" standalone="no"?>
<!DOCTYPE svg PUBLIC "-//W3C//DTD SVG 20010904//EN"
 "http://www.w3.org/TR/2001/REC-SVG-20010904/DTD/svg10.dtd">
<svg version="1.0" xmlns="http://www.w3.org/2000/svg"
 width="1300.000000pt" height="1300.000000pt" viewBox="0 0 1300.000000 1300.000000"
 preserveAspectRatio="xMidYMid meet">
<metadata>
Created by potrace 1.14, written by Peter Selinger 2001-2017
</metadata>
<g transform="translate(0.000000,1300.000000) scale(0.100000,-0.100000)"
fill="#000000" stroke="none">
<path d="M7661 9648 c-163 -26 -277 -140 -300 -299 -30 -210 101 -384 316
-420 119 -20 244 26 320 116 41 50 46 51 123 31 30 -7 150 -35 265 -61 317
-71 283 -58 291 -113 4 -26 15 -72 26 -102 11 -30 22 -63 25 -73 4 -14 -109
-133 -498 -523 -277 -277 -507 -504 -511 -504 -3 0 -26 16 -50 37 -61 52 -251
174 -330 213 l-68 33 0 187 0 188 64 4 c103 6 166 68 166 161 0 61 -23 111
-67 144 l-36 28 -887 3 -886 2 -46 -29 c-56 -36 -82 -80 -82 -141 0 -56 23
-101 70 -137 29 -21 50 -28 100 -31 l64 -4 0 -189 0 -189 -62 -31 c-96 -48
-175 -97 -261 -161 -61 -45 -82 -56 -95 -49 -9 6 -291 284 -626 620 l-609 610
21 73 c32 112 34 131 22 200 -17 93 -55 165 -123 232 -99 97 -239 146 -360
126 -69 -11 -171 -55 -162 -70 3 -5 0 -7 -8 -4 -23 8 -112 -88 -146 -158 -56
-114 -62 -206 -20 -333 35 -110 134 -212 249 -257 78 -30 223 -31 298 -1 l54
22 620 -620 619 -619 -58 -72 c-167 -207 -288 -430 -356 -658 -24 -80 -63
-268 -69 -335 l-3 -30 -678 0 -678 0 -29 67 c-15 37 -44 89 -63 116 -26 34
-33 52 -27 62 27 43 1 26 -77 -50 l-88 -85 90 93 c89 91 103 104 89 80 -5 -9
-4 -10 3 -3 5 6 50 78 98 160 150 254 277 469 291 492 11 18 22 21 86 21 40 1
92 7 114 16 264 94 334 427 129 615 -72 65 -145 93 -245 93 -91 0 -158 -21
-223 -71 -143 -108 -186 -303 -102 -464 l35 -69 -81 -141 c-102 -177 -123
-212 -243 -418 l-97 -167 -42 10 c-23 5 -83 8 -134 5 -79 -4 -102 -9 -168 -40
-321 -153 -389 -558 -136 -807 96 -94 252 -152 370 -136 l48 6 78 -177 c43
-98 91 -205 106 -238 15 -33 40 -91 57 -129 l30 -68 -37 -38 c-92 -95 -133
-262 -97 -395 32 -121 118 -224 233 -278 64 -30 75 -32 178 -32 103 0 114 2
175 32 75 37 170 124 202 186 148 291 -62 627 -392 627 l-37 0 -65 148 c-145
326 -198 448 -198 456 0 4 20 29 45 54 25 25 45 48 45 51 0 4 -40 46 -88 94
l-89 88 -18 -28 c-42 -67 -114 -102 -206 -103 -151 0 -242 88 -243 235 -1 93
25 150 87 195 26 18 45 36 43 39 -2 3 33 7 79 9 186 7 285 -90 272 -267 l-5
-78 89 -89 88 -88 29 65 c17 35 32 72 36 82 5 16 46 17 679 17 l673 0 13 -117
c25 -244 82 -438 192 -657 50 -97 135 -230 200 -310 l49 -61 -514 -514 -514
-514 -65 18 c-134 36 -266 -2 -359 -104 -142 -155 -144 -349 -7 -495 80 -86
155 -121 259 -121 90 0 153 21 227 76 58 43 106 107 129 171 21 57 21 171 1
229 l-17 46 517 517 c456 456 518 515 532 503 106 -92 223 -171 349 -238 42
-23 76 -46 74 -53 -2 -6 -41 -99 -87 -206 -45 -107 -102 -240 -125 -295 -23
-55 -46 -105 -51 -111 -5 -6 -27 -14 -48 -18 -56 -9 -133 -73 -165 -137 -34
-69 -36 -171 -5 -235 24 -51 86 -109 143 -135 47 -21 127 -25 177 -7 48 16
114 63 139 98 19 26 20 33 8 48 -12 15 -11 16 4 4 14 -11 18 -8 29 25 22 64
17 132 -15 197 l-28 57 21 57 c54 148 238 577 247 575 5 0 61 -13 125 -27 63
-14 162 -31 220 -38 57 -6 105 -12 107 -13 1 -1 2 -316 2 -701 l1 -699 -63
-33 c-80 -41 -162 -127 -202 -212 -29 -60 -31 -73 -31 -171 0 -101 1 -108 37
-180 46 -93 112 -158 206 -202 63 -30 73 -32 182 -32 107 0 119 2 175 29 58
29 194 150 182 163 -3 3 0 12 8 20 30 29 56 144 53 227 l-2 80 159 94 c88 52
217 128 287 169 l128 74 42 -30 c167 -120 400 -100 545 47 174 177 171 441 -8
606 -68 63 -102 83 -174 102 -286 77 -566 -155 -540 -446 l6 -65 -282 -165
c-155 -91 -286 -166 -290 -168 -5 -2 -24 9 -44 23 -31 24 -37 26 -53 14 -15
-12 -16 -12 -5 2 11 14 7 19 -27 34 l-40 18 0 703 0 703 33 5 c267 41 439 91
626 183 105 51 289 166 336 210 11 10 41 36 67 57 l48 38 159 -161 160 -160
-15 -43 c-8 -23 -15 -78 -15 -121 -1 -70 3 -87 32 -145 41 -84 98 -140 185
-183 62 -31 77 -34 154 -34 76 0 92 3 152 33 75 37 143 104 180 180 19 40 23
62 23 147 0 87 -3 107 -26 155 -34 74 -78 122 -149 165 -86 52 -149 62 -260
40 l-90 -17 -91 94 c-50 51 -122 125 -160 164 l-70 71 59 79 c199 267 322 594
350 929 l7 90 745 2 745 2 27 -59 27 -59 -68 -83 c-37 -46 -116 -144 -176
-218 -60 -74 -147 -181 -193 -237 l-84 -103 -62 0 c-149 0 -266 -121 -266
-275 0 -97 69 -193 169 -238 53 -23 166 -20 216 6 56 28 112 92 135 153 21 54
21 65 11 131 l-12 72 148 179 c81 99 198 241 258 316 97 120 113 135 135 131
113 -23 144 -25 207 -15 283 46 440 346 317 607 -30 63 -99 142 -148 168 -35
19 -35 19 -58 0 l-23 -20 19 22 19 23 -39 17 c-57 24 -198 29 -265 10 -71 -21
-164 -78 -163 -99 1 -9 -4 -14 -11 -12 -17 7 -60 -46 -96 -117 l-29 -59 -745
0 c-410 0 -745 3 -745 8 0 35 -45 266 -65 337 -67 229 -189 465 -334 645 -28
35 -51 67 -51 70 0 13 1012 1015 1023 1012 7 -2 26 -9 43 -17 51 -24 145 -45
199 -45 161 0 338 101 422 242 37 60 73 189 73 257 0 73 -34 195 -71 257 -181
302 -651 312 -836 18 -16 -24 -34 -44 -42 -44 -29 0 -605 125 -621 135 -6 3
-10 15 -10 25 0 41 -43 132 -86 179 -50 55 -126 97 -195 106 -24 4 -53 8 -64
9 -11 2 -44 -1 -74 -6z m-4091 -215 l75 -78 -77 75 c-43 41 -78 76 -78 77 0 8
11 -3 80 -74z m4210 -38 c64 -33 81 -131 32 -183 -51 -54 -126 -55 -177 -2
-22 23 -28 39 -28 72 0 54 15 84 56 108 38 24 78 25 117 5z m1640 -8 c0 -2
-15 -16 -32 -33 l-33 -29 29 33 c28 30 36 37 36 29z m-5641 -52 c126 -64 129
-238 7 -310 -150 -88 -324 74 -250 230 15 32 61 75 94 88 30 11 122 7 149 -8z
m5561 -28 c0 -2 -15 -16 -32 -33 l-33 -29 29 33 c28 30 36 37 36 29z m-84 -85
c-15 -18 -14 -20 23 -37 158 -71 183 -305 43 -412 -119 -90 -299 -57 -372 69
-25 45 -30 64 -30 123 0 149 98 245 251 245 47 0 70 4 79 15 7 8 15 15 18 15
3 0 -2 -8 -12 -18z m-1835 -49 c13 -16 12 -17 -3 -4 -10 7 -18 15 -18 17 0 8
8 3 21 -13z m-491 -1118 l0 -305 23 -9 c12 -5 49 -19 82 -31 131 -49 297 -143
405 -229 19 -15 28 -17 40 -8 12 9 13 8 4 -2 -10 -10 7 -32 76 -99 185 -183
301 -372 383 -628 55 -169 71 -296 64 -504 -8 -238 -44 -390 -143 -600 -75
-158 -163 -282 -298 -415 -227 -225 -492 -365 -797 -421 -130 -24 -400 -24
-529 0 -505 93 -941 441 -1134 903 -33 79 -81 247 -97 343 -17 97 -17 382 0
485 34 211 139 462 269 645 59 82 272 313 272 294 0 -4 10 2 23 13 75 70 298
191 436 238 l66 22 3 306 2 307 425 0 425 0 0 -305z m-3194 -174 c59 -36 69
-131 20 -184 -46 -49 -143 -44 -186 10 -22 29 -27 97 -9 136 25 55 116 74 175
38z m1759 -351 c10 -11 16 -20 13 -20 -3 0 -13 9 -23 20 -10 11 -16 20 -13 20
3 0 13 -9 23 -20z m-2870 -870 c38 -38 67 -70 64 -70 -2 0 -36 32 -74 70 -38
39 -67 70 -64 70 2 0 36 -31 74 -70z m7775 7 c0 -2 -15 -16 -32 -33 l-33 -29
29 33 c28 30 36 37 36 29z m-344 -109 l29 -33 -32 29 c-31 28 -38 36 -30 36 2
0 16 -15 33 -32z m264 29 c0 -2 -15 -16 -32 -33 l-33 -29 29 33 c28 30 36 37
36 29z m-149 -91 c68 36 172 16 218 -41 44 -57 52 -156 16 -207 -11 -17 -12
-25 -2 -37 10 -14 10 -14 -5 -3 -12 10 -18 10 -23 1 -11 -16 -86 -49 -115 -49
-80 0 -161 59 -181 133 l-10 39 -32 -28 c-27 -25 -26 -23 6 14 20 23 37 50 37
61 0 10 12 35 26 56 l25 38 -23 26 -23 26 26 -23 c27 -23 28 -23 60 -6z m-171
-229 c0 -2 -15 -16 -32 -33 l-33 -29 29 33 c28 30 36 37 36 29z m-80 -80 c0
-2 -10 -12 -22 -23 l-23 -19 19 23 c18 21 26 27 26 19z m536 -29 l29 -33 -32
29 c-31 28 -38 36 -30 36 2 0 16 -15 33 -32z m-7846 8 c0 -2 -8 -10 -17 -17
-16 -13 -17 -12 -4 4 13 16 21 21 21 13z m-40 -39 c0 -1 -28 -29 -62 -62 l-63
-60 60 63 c55 58 65 67 65 59z m7966 -49 l29 -33 -32 29 c-31 28 -38 36 -30
36 2 0 16 -15 33 -32z m-7006 -1010 c64 -33 92 -84 88 -164 -6 -104 -72 -167
-175 -167 -134 0 -214 142 -150 263 44 83 148 113 237 68z m4976 -529 c74 -69
36 -193 -64 -206 -44 -6 -92 14 -116 49 -19 27 -21 93 -3 128 29 59 133 76
183 29z m-3031 -709 c10 -11 16 -20 13 -20 -3 0 -13 9 -23 20 -10 11 -16 20
-13 20 3 0 13 -9 23 -20z m-1481 -39 c27 -27 31 -38 30 -83 0 -44 -5 -55 -32
-79 -41 -37 -74 -45 -123 -30 -48 15 -79 59 -79 115 0 35 -2 37 -17 25 -10 -7
2 8 26 34 48 50 65 57 125 52 28 -3 48 -13 70 -34z m1561 -41 c10 -11 16 -20
13 -20 -3 0 -13 9 -23 20 -10 11 -16 20 -13 20 3 0 13 -9 23 -20z m-1815 -43
c0 -2 -15 -16 -32 -33 l-33 -29 29 33 c28 30 36 37 36 29z m1895 -37 c10 -11
16 -20 13 -20 -3 0 -13 9 -23 20 -10 11 -16 20 -13 20 3 0 13 -9 23 -20z
m-1975 -43 c0 -2 -19 -21 -42 -42 l-43 -40 40 43 c36 39 45 47 45 39z m4203
-78 c53 -14 111 -69 126 -120 24 -81 -8 -160 -84 -204 -132 -78 -291 46 -254
198 18 74 85 132 159 136 8 1 32 -4 53 -10z m-1508 -599 c10 -11 16 -20 13
-20 -3 0 -13 9 -23 20 -10 11 -16 20 -13 20 3 0 13 -9 23 -20z m355 6 c0 -2
-8 -10 -17 -17 -16 -13 -17 -12 -4 4 13 16 21 21 21 13z m-275 -86 c10 -11 16
-20 13 -20 -3 0 -13 9 -23 20 -10 11 -16 20 -13 20 3 0 13 -9 23 -20z m195 6
c0 -2 -8 -10 -17 -17 -16 -13 -17 -12 -4 4 13 16 21 21 21 13z m-59 -60 c-10
-12 -5 -16 24 -26 72 -24 136 -126 121 -195 -22 -105 -126 -173 -223 -146
-165 45 -181 271 -24 337 18 8 44 14 56 14 12 0 28 7 35 15 7 8 15 15 17 15 3
0 0 -6 -6 -14z m184 -266 c10 -11 16 -20 13 -20 -3 0 -13 9 -23 20 -10 11 -16
20 -13 20 3 0 13 -9 23 -20z m-445 6 c0 -2 -8 -10 -17 -17 -16 -13 -17 -12 -4
4 13 16 21 21 21 13z m525 -86 c10 -11 16 -20 13 -20 -3 0 -13 9 -23 20 -10
11 -16 20 -13 20 3 0 13 -9 23 -20z m-605 6 c0 -2 -8 -10 -17 -17 -16 -13 -17
-12 -4 4 13 16 21 21 21 13z"/>
<path d="M6431 6723 c7 -12 15 -20 18 -17 3 2 -3 12 -13 22 -17 16 -18 16 -5
-5z"/>
<path d="M7545 5519 c-4 -6 -5 -12 -2 -15 2 -3 7 2 10 11 7 17 1 20 -8 4z"/>
<path d="M4975 9541 c-166 -41 -268 -223 -205 -369 30 -70 101 -135 174 -158
49 -15 65 -16 112 -6 99 20 192 101 223 191 31 94 7 186 -69 263 -74 74 -150
99 -235 79z"/>
<path d="M9858 8429 c-162 -26 -292 -194 -275 -357 13 -122 102 -240 213 -282
69 -25 168 -26 237 -2 163 56 258 263 196 427 -55 147 -215 240 -371 214z
m125 -271 c40 -47 12 -129 -48 -140 -31 -6 -81 15 -94 41 -34 63 19 139 88
126 20 -3 44 -15 54 -27z"/>
<path d="M9180 7553 c-144 -49 -228 -222 -171 -349 26 -57 76 -111 135 -145
134 -76 319 5 369 162 34 102 12 185 -68 266 -78 77 -169 100 -265 66z m-4
-115 l29 -33 -32 29 c-31 28 -38 36 -30 36 2 0 16 -15 33 -32z m80 -80 l29
-33 -32 29 c-31 28 -38 36 -30 36 2 0 16 -15 33 -32z m80 -80 l29 -33 -32 29
c-31 28 -38 36 -30 36 2 0 16 -15 33 -32z m89 -88 c21 -22 37 -40 34 -40 -3 0
-23 18 -44 40 -21 22 -37 40 -34 40 3 0 23 -18 44 -40z"/>
<path d="M3910 6049 c-194 -87 -229 -337 -65 -461 138 -104 308 -61 403 102
35 58 38 163 7 225 -25 50 -89 113 -140 136 -55 25 -147 24 -205 -2z"/>
<path d="M9470 4541 c-93 -30 -164 -94 -207 -186 -22 -48 -27 -75 -28 -135 0
-65 4 -84 33 -142 60 -122 166 -188 301 -188 115 0 195 40 264 134 123 166 64
408 -121 497 -51 24 -193 36 -242 20z m142 -242 c11 -6 26 -26 34 -45 13 -31
13 -39 -2 -69 -41 -86 -164 -51 -164 46 0 11 13 34 29 50 31 31 67 37 103 18z"/>
</g>
</svg>
